HIERARCHY
ROOT hip
{
  OFFSET 0 0 0
  CHANNELS 6 Xposition Yposition Zposition Zrotation Yrotation Xrotation
  JOINT abdomen
  {
    OFFSET 0 20.6881 -0.73152
    CHANNELS 3 Zrotation Xrotation Yrotation
    JOINT chest
    {
      OFFSET 0 11.7043 -0.48768
      CHANNELS 3 Zrotation Xrotation Yrotation
      JOINT neck
      {
        OFFSET 0 22.1894 -2.19456
        CHANNELS 3 Zrotation Xrotation Yrotation
        JOINT head
        {
          OFFSET -0.24384 7.07133 1.2192
          CHANNELS 3 Zrotation Xrotation Yrotation
          JOINT leftEye
          {
            OFFSET 4.14528 8.04674 8.04672
            CHANNELS 3 Zrotation Xrotation Yrotation
            End Site
            {
              OFFSET 1 0 0
            }
          }
          JOINT rightEye
          {
            OFFSET -3.6576 8.04674 8.04672
            CHANNELS 3 Zrotation Xrotation Yrotation
            End Site
            {
              OFFSET 1 0 0
            }
          }
        }
      }
      JOINT rCollar
      {
        OFFSET -2.68224 19.2634 -4.8768
        CHANNELS 3 Zrotation Xrotation Yrotation
        JOINT rShldr
        {
          OFFSET -8.77824 -1.95073 1.46304
          CHANNELS 3 Zrotation Xrotation Yrotation
          JOINT rForeArm
          {
            OFFSET -28.1742 -1.7115 0.48768
            CHANNELS 3 Zrotation Xrotation Yrotation
            JOINT rHand
            {
              OFFSET -22.5879 0.773209 7.07136
              CHANNELS 3 Zrotation Xrotation Yrotation
              JOINT rThumb1
              {
                OFFSET -1.2192 -0.487915 3.41376
                CHANNELS 3 Zrotation Xrotation Yrotation
                JOINT rThumb2
                {
                  OFFSET -3.37035 -0.52449 3.41376
                  CHANNELS 3 Zrotation Xrotation Yrotation
                  End Site
                  {
                    OFFSET -1.78271 -1.18214 1.43049
                  }
                }
              }
              JOINT rIndex1
              {
                OFFSET -7.75947 0.938293 5.60832
                CHANNELS 3 Zrotation Xrotation Yrotation
                JOINT rIndex2
                {
                  OFFSET -2.54057 -0.884171 1.56538
                  CHANNELS 3 Zrotation Xrotation Yrotation
                  End Site
                  {
                    OFFSET -1.62519 -0.234802 1.16502
                  }
                }
              }
              JOINT rMid1
              {
                OFFSET -8.24714 1.18213 3.41376
                CHANNELS 3 Zrotation Xrotation Yrotation
                JOINT rMid2
                {
                  OFFSET -3.10165 -0.590103 1.0647
                  CHANNELS 3 Zrotation Xrotation Yrotation
                  End Site
                  {
                    OFFSET -2.48547 -0.328903 0.83742
                  }
                }
              }
              JOINT rRing1
              {
                OFFSET -8.82822 0.546677 1.51678
                CHANNELS 3 Zrotation Xrotation Yrotation
                JOINT rRing2
                {
                  OFFSET -2.60934 -0.819778 -0.0198488
                  CHANNELS 3 Zrotation Xrotation Yrotation
                  End Site
                  {
                    OFFSET -2.33842 -0.294052 0.168128
                  }
                }
              }
              JOINT rPinky1
              {
                OFFSET -8.27202 -0.0477905 -0.4584
                CHANNELS 3 Zrotation Xrotation Yrotation
                JOINT rPinky2
                {
                  OFFSET -1.82734 -0.647385 -0.700984
                  CHANNELS 3 Zrotation Xrotation Yrotation
                  End Site
                  {
                    OFFSET -1.69225 -0.51767 -0.607171
                  }
                }
              }
            }
          }
        }
      }
      JOINT lCollar
      {
        OFFSET 2.68224 19.2634 -4.8768
        CHANNELS 3 Zrotation Xrotation Yrotation
        JOINT lShldr
        {
          OFFSET 8.77824 -1.95073 1.46304
          CHANNELS 3 Zrotation Xrotation Yrotation
          JOINT lForeArm
          {
            OFFSET 28.1742 -1.7115 0.48768
            CHANNELS 3 Zrotation Xrotation Yrotation
            JOINT lHand
            {
              OFFSET 22.5879 0.773209 7.07136
              CHANNELS 3 Zrotation Xrotation Yrotation
              JOINT lThumb1
              {
                OFFSET 1.2192 -0.487915 3.41376
                CHANNELS 3 Zrotation Xrotation Yrotation
                JOINT lThumb2
                {
                  OFFSET 3.37035 -0.52449 3.41376
                  CHANNELS 3 Zrotation Xrotation Yrotation
                  End Site
                  {
                    OFFSET 1.78271 -1.18214 1.43049
                  }
                }
              }
              JOINT lIndex1
              {
                OFFSET 7.75947 0.938293 5.60832
                CHANNELS 3 Zrotation Xrotation Yrotation
                JOINT lIndex2
                {
                  OFFSET 2.54057 -0.884171 1.56538
                  CHANNELS 3 Zrotation Xrotation Yrotation
                  End Site
                  {
                    OFFSET 1.62519 -0.234802 1.16502
                  }
                }
              }
              JOINT lMid1
              {
                OFFSET 8.24714 1.18213 3.41376
                CHANNELS 3 Zrotation Xrotation Yrotation
                JOINT lMid2
                {
                  OFFSET 3.10165 -0.590103 1.0647
                  CHANNELS 3 Zrotation Xrotation Yrotation
                  End Site
                  {
                    OFFSET 2.48547 -0.328903 0.83742
                  }
                }
              }
              JOINT lRing1
              {
                OFFSET 8.82822 0.546677 1.51678
                CHANNELS 3 Zrotation Xrotation Yrotation
                JOINT lRing2
                {
                  OFFSET 2.60934 -0.819778 -0.0198488
                  CHANNELS 3 Zrotation Xrotation Yrotation
                  End Site
                  {
                    OFFSET 2.33842 -0.294052 0.168128
                  }
                }
              }
              JOINT lPinky1
              {
                OFFSET 8.27202 -0.0477905 -0.4584
                CHANNELS 3 Zrotation Xrotation Yrotation
                JOINT lPinky2
                {
                  OFFSET 1.82734 -0.647385 -0.700984
                  CHANNELS 3 Zrotation Xrotation Yrotation
                  End Site
                  {
                    OFFSET 1.69225 -0.51767 -0.607171
                  }
                }
              }
            }
          }
        }
      }
    }
  }
  JOINT rButtock
  {
    OFFSET -8.77824 4.35084 1.2192
    CHANNELS 3 Zrotation Xrotation Yrotation
    JOINT rThigh
    {
      OFFSET 0 -1.70687 -2.19456
      CHANNELS 3 Zrotation Xrotation Yrotation
      JOINT rShin
      {
        OFFSET 0 -36.8199 0.73152
        CHANNELS 3 Zrotation Xrotation Yrotation
        JOINT rFoot
        {
          OFFSET 0.73152 -45.1104 -5.12064
          CHANNELS 3 Zrotation Xrotation Yrotation
          End Site
          {
            OFFSET -1.1221 -3.69964 12.103
          }
        }
      }
    }
  }
  JOINT lButtock
  {
    OFFSET 8.77824 4.35084 1.2192
    CHANNELS 3 Zrotation Xrotation Yrotation
    JOINT lThigh
    {
      OFFSET 0 -1.70687 -2.19456
      CHANNELS 3 Zrotation Xrotation Yrotation
      JOINT lShin
      {
        OFFSET 0 -36.8199 0.73152
        CHANNELS 3 Zrotation Xrotation Yrotation
        JOINT lFoot
        {
          OFFSET -0.73152 -45.1104 -5.12064
          CHANNELS 3 Zrotation Xrotation Yrotation
          End Site
          {
            OFFSET 1.1221 -3.69964 12.103
          }
        }
      }
    }
  }
}
MOTION
Frames:	4
Frame Time:	0.00833333
1.1616462 83.04674 0.43228215 -157.88626 -75.38837 164.72186 7.8552723 -0.047101818 9.461439 4.5825076 -13.151195 3.5092216 -9.182159 21.08473 -4.771319 6.5756507 -29.558031 -9.55154 0.013943929 0.014039411 -0.03892051 -0.008283454 0.017739069 0.0015278475 -0.011743454 -0.042392753 -0.011747019 86.013626 35.23929 2.117813 -27.79782 -29.411058 66.37212 -1.9734201 -36.59134 -5.9932885 0.0061445087 0.0015535927 0.007924351 -0.023889512 -0.0068554278 -0.0013967863 0.003186509 0.010772572 -0.022010226 7.738597 5.4688296 0.41623592 -0.031556737 -0.010665219 0.0094196545 2.8852437 0.9409589 0.097643144 0.009653743 -0.022243844 0.0043269703 10.282563 0.7364574 0.022005474 -0.024236118 0.015253626 -0.022468764 2.22391 -0.7233496 -0.2070482 -0.017326826 -0.0113373995 0.0015583945 -64.72596 26.04594 1.6563777 27.333967 -27.59856 -63.240437 1.8768569 35.291298 -5.686796 -0.017746793 -0.010961647 -0.015669687 0.012673189 0.014981024 0.0027945603 0.008656653 0.01863789 0.025501492 -7.691285 5.4937944 -0.41416103 0.004512489 -0.0033581064 0.027168179 -2.874858 0.9586426 -0.13368389 0.0007944275 0.0080680605 0.0075433957 -10.289522 0.74190867 -0.021765871 -0.0041722506 -0.0028574844 0.006948229 -2.213519 -0.711101 0.19639748 -0.0016285591 0.013402675 -0.019285053 8.743334 -24.182636 -17.168753 -0.1637216 35.776596 0.5727785 -6.7808795 -16.94829 -20.653536 -0.009177202 -0.0266831 -0.0148961535 7.130811 -32.733646 -1.9388962 1.1839935 62.83107 -1.5335922 0.76917213 -7.328842 2.6830072
5.5953355 82.962425 1.5242448 -50.537262 -85.624214 57.5689 2.8530183 0.38983777 3.2354372 10.499258 -13.158172 2.1764662 -8.721698 22.83618 -7.17259 2.5740416 -28.672276 -14.889101 -0.0053436095 0.015631495 -0.016130915 -0.029167531 -0.002875654 0.00835808 0.0069125555 -0.023497624 0.005424906 75.58686 35.61765 21.519596 -26.317072 -24.222652 57.971855 -1.5008178 -33.104923 -5.1890655 0.0059128846 -0.021793079 0.0015372498 -0.027267946 -0.024958044 -0.025024546 0.006127555 0.027318183 0.0053690816 7.7234683 5.482146 0.4239304 -0.00023279739 0.0021578544 0.019280931 2.8993948 0.9610799 0.083570376 0.011738509 -0.017948125 0.019413784 10.278132 0.7193837 0.021742297 -0.0025686817 0.0026906908 -0.010063878 2.2227106 -0.7706758 -0.20802046 0.0051974626 0.0021057895 -0.0074895555 -51.890377 39.70962 -13.546997 27.831747 -29.710287 -66.879005 1.4680008 30.586111 -4.7893615 -0.004298023 -0.009185888 -0.004381567 0.018193794 -0.006031852 0.024122017 -0.004501397 -0.0019343081 0.007572098 -7.71785 5.5083213 -0.43104258 0.0011513751 -0.007405242 -0.0020195383 -2.8895357 0.96067035 -0.096922874 0.012349786 0.023556095 0.005303326 -10.295214 0.7521793 -0.04661964 0.00012793211 0.010719329 -0.00827358 -2.2341578 -0.7504592 0.21871386 0.0019947006 0.0202824 0.001229986 2.667675 -33.813435 -25.276043 -0.2710387 38.98236 0.5019178 -9.80244 -16.85478 -28.438965 0.0037536023 -0.019724183 -0.0026723263 4.280721 -16.951668 -2.4301121 0.5520335 49.16629 -0.8148014 -0.4802855 -9.899829 -3.2916286
11.770512 83.03884 3.9549367 3.478222 -76.75947 2.0817916 -4.344823 8.064245 0.9355631 12.223997 -15.817744 2.024227 -9.505234 22.69299 -7.8746066 2.244538 -29.717117 -16.427168 0.0050407634 0.011243236 -0.019697722 -0.034749616 -0.015949078 0.008561631 0.012110829 -0.012622515 0.002416442 82.55182 30.398077 16.421934 -25.844646 -23.059391 56.060585 -1.9077815 -35.72089 -5.819475 0.0100699235 -0.00044941713 0.022121849 -0.035334773 -0.01285205 -0.020859959 -0.005094022 0.034249105 0.00544063 7.733865 5.473 0.41479862 0.005222068 0.015556971 0.010928757 2.8976457 0.9485553 0.09424886 -0.0033101258 -0.03049618 0.04087936 10.259616 0.7251242 0.020180915 -0.0001309661 -0.016885543 -0.016372412 2.2346885 -0.7713303 -0.217342 0.0009869866 -0.0011831012 -0.0068701445 -45.040894 40.184784 -35.274815 27.311993 -27.17925 -62.947964 1.6309196 31.32539 -4.946112 0.008266495 0.0022412231 0.004228173 0.014547295 -0.022530971 0.014131809 -0.027040806 1.8773886e-05 0.0149787795 -7.7146196 5.4994817 -0.41459867 0.021412436 -0.012214277 -0.018227626 -2.8636737 0.9700609 -0.11224107 0.012739192 0.013428953 0.004437014 -10.305994 0.7812886 -0.027605709 0.0018043603 -0.012840205 0.0055862223 -2.2328055 -0.74015486 0.20699055 -0.0005036929 0.0034820803 0.007852921 -6.37873 -39.029083 -22.647022 -0.34857386 42.12821 0.712316 -11.558556 -14.8816805 -36.084194 0.0013386472 -0.016281784 -0.008685377 -4.652693 -7.126907 -5.9000306 0.30143923 33.81872 -0.68160206 2.486924 -24.157038 4.67487
17.707897 82.27389 5.49866 25.62869 -71.032074 -23.461657 -10.082154 16.408796 3.8329103 9.062222 -16.479807 2.0717003 -10.6997795 22.054388 -8.491933 3.85562 -31.054434 -17.348276 -0.0047598165 0.00961535 -0.005685328 -0.026472032 -0.026363173 0.0012168413 0.021255715 -0.009836153 0.0030911856 86.200966 24.306906 8.109229 -26.607122 -25.012056 59.289196 -2.514314 -39.719566 -6.826247 0.0055166148 0.00013877764 0.013141541 -0.003702067 -0.0068879346 -0.01472775 -0.018312527 0.018545033 0.0003580388 7.7555614 5.478078 0.39072517 0.021697124 0.033376087 -0.008241255 2.9035637 0.95809525 0.12749459 -0.018942736 -0.014821373 0.042302314 10.264964 0.7457017 0.043076493 -3.8083595e-05 -0.03722339 -0.019804219 2.2395213 -0.7605896 -0.21847355 0.005763067 -0.030202512 -0.009388057 -47.616764 41.083958 -48.246876 26.688269 -24.88409 -59.381477 1.4223559 30.257368 -4.6983185 -0.0076405033 -0.003073032 0.008281712 0.017654669 -0.018545954 0.006098346 -0.020681107 0.021993365 0.030768119 -7.6998725 5.5079503 -0.40495282 0.014181436 -0.013114707 -0.008084297 -2.8803396 0.9556969 -0.1299255 0.004827294 -0.008689849 0.003959342 -10.311061 0.7752365 -0.010401003 0.00058226066 -0.024401894 0.019497577 -2.2163785 -0.73119986 0.20061897 -0.015852155 -0.0030773003 0.0025698675 -14.08835 -38.238834 -14.995307 -0.44606066 47.35234 0.7760927 -7.551725 -12.87874 -25.564922 -0.019150026 -0.013645451 -0.015515286 -12.518623 -6.6487603 -4.5855927 0.33130696 32.81998 -0.6941022 0.18030408 -22.425583 -1.5657184
